/* XPM */
static char *f869961378a541959de060c5b19c283bTewzBRpitu7t7jth[] = {
/* columns rows colors chars-per-pixel */
"32 32 5 1 ",
"  c #0E0421",
". c #0C0B42",
"X c #032769",
"o c #144491",
"O c #10908E",
/* pixels */
"                                ",
". .XXXXXXXXXXXXX. .XXXXXXXXXXXXX",
"X XXXXXXXXXXXXXXX XXXXXXXXXXXXXX",
"X XXXXXXXXXXXXXXX XXXXXXXXXXXXXX",
"X XXXXXXXXXXXXXXX XXXXXXXXXXXXXX",
"X XXXXXXXXXXXXXXX XXXXXXXXXXXXXX",
"X XXXXXXXXXXXXXXX XXXXXXXXXXXXXX",
"X XXXXXXXXXXXXXXX XXXXXXXXXXXXXX",
"o.ooooooooooooooo.oooooooooooooo",
"O.OoooooooooooooO.Oooooooooooooo",
"X.XOOOOOOOOOOOOOX.XOOOOOOOOOOOOO",
"................................",
"oooX.XoooooooooooooooX.Xoooooooo",
"oooo.ooooooooooooooooo.ooooooooo",
"oooo.ooooooooooooooooo.ooooooooo",
"oooo.ooooooooooooooooo.ooooooooo",
"oooo.ooooooooooooooooo.ooooooooo",
"oooo.ooooooooooooooooo.ooooooooo",
"oooo.ooooooooooooooooo.ooooooooo",
"oooO.OoooooooooooooooO.Ooooooooo",
"OOOX.XOOOOOOOOOOOOOOOX.XOOOOOOOO",
"................................",
"ooooooooooooX.XooooooooooooooX.X",
"ooooooooooooo.oooooooooooooooo.o",
"ooooooooooooo.oooooooooooooooo.o",
"ooooooooooooo.oooooooooooooooo.o",
"ooooooooooooo.oooooooooooooooo.o",
"ooooooooooooo.oooooooooooooooo.o",
"ooooooooooooo.oooooooooooooooo.o",
"ooooooooooooo.oooooooooooooooo.o",
"ooooooooooooO.OooooooooooooooO.O",
"OOOOOOOOOOOOX.XOOOOOOOOOOOOOOX.X"
};
